<svg width="43" height="20" viewBox="0 0 43 20" fill="none" xmlns="http://www.w3.org/2000/svg">
<path d="M8.05627 0.21167C10.7887 0.21167 13.0737 1.15852 14.912 3.05312C16.7494 4.94682 17.6686 7.29787 17.6686 10.1063C17.6686 12.9147 16.7494 15.2648 14.912 17.1594C13.0746 19.0531 10.7887 20 8.05627 20H1.6552C0.741403 20 0 19.2595 0 18.3448V1.86687C0 0.953072 0.740509 0.21167 1.6552 0.21167H8.05717H8.05627ZM8.27423 13.9035C9.31845 13.9035 10.1697 13.5569 10.8272 12.8629C11.4846 12.1688 11.8142 11.2505 11.8142 10.1054C11.8142 8.96022 11.4846 8.04195 10.8272 7.34789C10.1688 6.65383 9.31755 6.30725 8.27423 6.30725H7.36311C6.66905 6.30725 6.10719 6.87 6.10719 7.56317V12.6467C6.10719 13.3407 6.66994 13.9026 7.36311 13.9026H8.27423V13.9035Z" fill="white"/>
<path d="M12.3939 19.2693V16.6181C12.3939 16.4386 12.4636 16.2662 12.5878 16.1367L18.9513 9.4962C19.6114 8.78874 20.092 8.21617 20.393 7.77847C20.6941 7.34078 20.845 6.90844 20.845 6.47968C20.845 5.99553 20.6896 5.60429 20.3787 5.30683C20.0679 5.00938 19.6391 4.86021 19.0924 4.86021C18.1125 4.86021 17.3309 5.3381 16.7485 6.29477C16.5511 6.61903 16.1295 6.73068 15.7954 6.54667L12.6619 4.81733C12.3287 4.63332 12.1983 4.21974 12.3761 3.88566C12.9987 2.71282 13.8428 1.79902 14.9084 1.14515C16.1518 0.382314 17.5275 0 19.0362 0C20.92 0 22.5368 0.554712 23.8839 1.66146C25.2309 2.76909 25.9053 4.28227 25.9053 6.20009C25.9053 7.33542 25.6364 8.38231 25.0987 9.34078C24.561 10.2992 23.7731 11.3095 22.736 12.3698L21.4998 13.6409C20.954 14.2028 21.3568 15.1371 22.1447 15.1371H25.5346C25.9267 15.1371 26.2439 15.4506 26.2439 15.8383V19.2684C26.2439 19.6552 25.9259 19.9696 25.5346 19.9696H13.1014C12.7092 19.9696 12.3921 19.6561 12.3921 19.2684L12.3939 19.2693Z" fill="#238EE5"/>
<path d="M33.2863 0.21167C36.0188 0.21167 38.3037 1.15852 40.1411 3.05312C41.9786 4.94682 42.8977 7.29787 42.8977 10.1063C42.8977 12.9147 41.9786 15.2648 40.1411 17.1594C38.3037 19.0531 36.0188 20 33.2863 20H26.8843C25.9705 20 25.2291 19.2595 25.2291 18.3448V1.86687C25.2291 0.953072 25.9696 0.21167 26.8843 0.21167H33.2863ZM33.5051 13.9035C34.5494 13.9035 35.4006 13.5569 36.059 12.8629C36.7164 12.1688 37.046 11.2505 37.046 10.1054C37.046 8.96022 36.7164 8.04195 36.059 7.34789C35.4006 6.65383 34.5494 6.30725 33.5051 6.30725H32.594C31.9 6.30725 31.3381 6.87 31.3381 7.56317V12.6467C31.3381 13.3407 31.9009 13.9026 32.594 13.9026H33.5051V13.9035Z" fill="white"/>
</svg>
