<svg width="12" height="10" viewBox="0 0 12 10" fill="none" xmlns="http://www.w3.org/2000/svg">
<path fill-rule="evenodd" clip-rule="evenodd" d="M0.471928 5.54901C0.205691 5.51236 0.000488281 5.28076 0.000488281 5.00052C0.000488281 4.6948 0.244696 4.44697 0.545943 4.44697L10.1344 4.44697L6.67052 0.945772L6.61758 0.883799C6.4587 0.667429 6.47567 0.359869 6.66892 0.162941C6.88149 -0.0536792 7.22685 -0.0544048 7.44031 0.16132L11.8403 4.60814L11.8439 4.61232C11.8601 4.62904 11.8753 4.64681 11.8893 4.6655L11.8934 4.67031C12.0526 4.88735 12.0349 5.19594 11.8403 5.39263L7.44028 9.83871L7.37899 9.89218C7.16511 10.0525 6.86212 10.034 6.66889 9.83703C6.45633 9.62039 6.45708 9.2699 6.67055 9.0542L10.1344 5.55406L0.545943 5.55406L0.471928 5.54901Z" fill="#003FF0"/>
</svg>
