<svg width="20" height="20" viewBox="0 0 20 20" fill="none" xmlns="http://www.w3.org/2000/svg">
<path d="M12.5 1.66675V10.0001C12.5 10.9167 11.75 11.6667 10.8333 11.6667H1.66666V6.35008C2.27499 7.07508 3.20835 7.52508 4.24168 7.50008C5.08335 7.48341 5.84166 7.15842 6.40833 6.61675C6.66666 6.40008 6.88334 6.12507 7.05001 5.82507C7.35001 5.31674 7.51666 4.71673 7.49999 4.09173C7.47499 3.11673 7.04167 2.25841 6.36667 1.66675H12.5Z" stroke="#FF8A3C" stroke-width="1.2" stroke-linecap="round" stroke-linejoin="round"/>
<path d="M18.3333 11.6667V14.1667C18.3333 15.5501 17.2167 16.6667 15.8333 16.6667H15C15 15.7501 14.25 15.0001 13.3333 15.0001C12.4167 15.0001 11.6667 15.7501 11.6667 16.6667H8.33332C8.33332 15.7501 7.58332 15.0001 6.66666 15.0001C5.74999 15.0001 4.99999 15.7501 4.99999 16.6667H4.16666C2.78332 16.6667 1.66666 15.5501 1.66666 14.1667V11.6667H10.8333C11.75 11.6667 12.5 10.9167 12.5 10.0001V4.16675H14.0333C14.6333 4.16675 15.1833 4.49176 15.4833 5.00842L16.9083 7.50008H15.8333C15.375 7.50008 15 7.87508 15 8.33341V10.8334C15 11.2917 15.375 11.6667 15.8333 11.6667H18.3333Z" stroke="#FF8A3C" stroke-width="1.2" stroke-linecap="round" stroke-linejoin="round"/>
<path d="M6.66667 18.3333C7.58714 18.3333 8.33333 17.5871 8.33333 16.6667C8.33333 15.7462 7.58714 15 6.66667 15C5.74619 15 5 15.7462 5 16.6667C5 17.5871 5.74619 18.3333 6.66667 18.3333Z" stroke="#FF8A3C" stroke-width="1.2" stroke-linecap="round" stroke-linejoin="round"/>
<path d="M13.3333 18.3333C14.2538 18.3333 15 17.5871 15 16.6667C15 15.7462 14.2538 15 13.3333 15C12.4128 15 11.6667 15.7462 11.6667 16.6667C11.6667 17.5871 12.4128 18.3333 13.3333 18.3333Z" stroke="#FF8A3C" stroke-width="1.2" stroke-linecap="round" stroke-linejoin="round"/>
<path d="M18.3333 10V11.6667H15.8333C15.375 11.6667 15 11.2917 15 10.8333V8.33333C15 7.875 15.375 7.5 15.8333 7.5H16.9083L18.3333 10Z" stroke="#FF8A3C" stroke-width="1.2" stroke-linecap="round" stroke-linejoin="round"/>
<path d="M7.50001 4.16659C7.50001 4.79159 7.325 5.38325 7.01666 5.88325C6.84166 6.18325 6.61668 6.44992 6.35835 6.66659C5.77501 7.19159 5.00834 7.49992 4.16668 7.49992C2.95001 7.49992 1.89169 6.84992 1.31669 5.88325C1.00836 5.38325 0.833344 4.79159 0.833344 4.16659C0.833344 3.11659 1.31668 2.17492 2.08334 1.56659C2.65834 1.10826 3.38334 0.833252 4.16668 0.833252C6.00834 0.833252 7.50001 2.32492 7.50001 4.16659Z" stroke="#FF8A3C" stroke-width="1.2" stroke-miterlimit="10" stroke-linecap="round" stroke-linejoin="round"/>
<path d="M5.05748 5.03298L3.29916 3.27466" stroke="#FF8A3C" stroke-width="1.2" stroke-miterlimit="10" stroke-linecap="round" stroke-linejoin="round"/>
<path d="M5.03307 3.29907L3.27475 5.05739" stroke="#FF8A3C" stroke-width="1.2" stroke-miterlimit="10" stroke-linecap="round" stroke-linejoin="round"/>
</svg>
