<svg width="24" height="24" viewBox="0 0 24 24" fill="none" xmlns="http://www.w3.org/2000/svg">
<path fill-rule="evenodd" clip-rule="evenodd" d="M20.2921 12.8235C20.6915 12.7685 20.9993 12.4211 20.9993 12.0008C20.9993 11.5422 20.633 11.1705 20.1811 11.1705L5.79833 11.1705L10.9942 5.91866L11.0736 5.8257C11.312 5.50114 11.2865 5.0398 10.9966 4.74441C10.6778 4.41948 10.1597 4.41839 9.83954 4.74198L3.23954 11.4122L3.23422 11.4184C3.20988 11.4435 3.18711 11.4702 3.16605 11.4983L3.15992 11.5055C2.92106 11.831 2.94762 12.2939 3.23959 12.5889L9.83959 19.2581L9.93152 19.3383C10.2523 19.5787 10.7068 19.551 10.9967 19.2555C11.3155 18.9306 11.3144 18.4049 10.9942 18.0813L5.79835 12.8311L20.1811 12.8311L20.2921 12.8235Z" fill="#333335"/>
</svg>
