<svg width="40" height="40" viewBox="0 0 40 40" fill="none" xmlns="http://www.w3.org/2000/svg">
<rect width="40" height="40" rx="20" fill="#F5F8FA"/>
<path d="M29.1662 24.9242C29.1828 25.5492 29.0162 26.1409 28.7162 26.6492C28.5495 26.9492 28.3245 27.2242 28.0745 27.4492C27.4995 27.9826 26.7411 28.3076 25.8995 28.3326C24.6828 28.3576 23.6078 27.7326 23.0162 26.7742C22.6995 26.2826 22.5078 25.6909 22.4995 25.0659C22.4745 24.0159 22.9412 23.0659 23.6912 22.4409C24.2578 21.9742 24.9745 21.6826 25.7578 21.6659C27.5995 21.6242 29.1245 23.0826 29.1662 24.9242Z" stroke="#12ABD5" stroke-miterlimit="10" stroke-linecap="round" stroke-linejoin="round"/>
<path d="M26.457 26.25L24.5842 26.25L24.5842 24.3728" stroke="#12ABD5" stroke-linecap="round" stroke-linejoin="round"/>
<path d="M24.5835 26.25L27.0835 23.75" stroke="#12ABD5" stroke-linecap="round" stroke-linejoin="round"/>
<path d="M12.6416 16.1992L19.9999 20.4575L27.3082 16.2242" stroke="#12ABD5" stroke-linecap="round" stroke-linejoin="round"/>
<path d="M20 28.0071V20.4487" stroke="#12ABD5" stroke-linecap="round" stroke-linejoin="round"/>
<path d="M28.0088 17.6415V22.3582C28.0088 22.3999 28.0088 22.4332 28.0005 22.4748C27.4172 21.9665 26.6672 21.6665 25.8338 21.6665C25.0505 21.6665 24.3255 21.9415 23.7505 22.3999C22.9838 23.0082 22.5005 23.9499 22.5005 24.9999C22.5005 25.6249 22.6755 26.2165 22.9838 26.7165C23.0588 26.8499 23.1505 26.9749 23.2505 27.0915L21.7255 27.9332C20.7755 28.4665 19.2255 28.4665 18.2755 27.9332L13.8255 25.4665C12.8172 24.9082 11.9922 23.5082 11.9922 22.3582V17.6415C11.9922 16.4915 12.8172 15.0915 13.8255 14.5332L18.2755 12.0665C19.2255 11.5332 20.7755 11.5332 21.7255 12.0665L26.1755 14.5332C27.1838 15.0915 28.0088 16.4915 28.0088 17.6415Z" stroke="#12ABD5" stroke-linecap="round" stroke-linejoin="round"/>
</svg>
