<svg width="20" height="21" viewBox="0 0 20 21" fill="none" xmlns="http://www.w3.org/2000/svg">
<path fill-rule="evenodd" clip-rule="evenodd" d="M13.6819 2.93805C13.6437 2.65427 13.4024 2.43555 13.1103 2.43555C12.7917 2.43555 12.5334 2.69585 12.5334 3.01694V3.65951H7.47383V3.01694L7.46856 2.93805C7.43036 2.65427 7.18898 2.43555 6.89691 2.43555C6.57828 2.43555 6.31999 2.69585 6.31999 3.01694V3.67391C3.95561 3.8366 2.5 5.36846 2.5 7.84015V14.8554C2.5 17.508 4.13195 19.102 6.74688 19.102H13.253C15.8711 19.102 17.4999 17.5347 17.4999 14.914V7.84015C17.5075 5.36763 16.0566 3.83621 13.6872 3.67386V3.01694L13.6819 2.93805ZM12.5334 4.8223V5.56793L12.5386 5.64683C12.5768 5.93061 12.8182 6.14933 13.1103 6.14933C13.4289 6.14933 13.6872 5.88903 13.6872 5.56793V4.83946C15.4111 4.98281 16.3516 6.02086 16.3461 7.83836V8.17529H3.65384V7.84015C3.65384 6.02374 4.59952 4.98348 6.31999 4.83957V5.56793L6.32525 5.64683C6.36346 5.93061 6.60484 6.14933 6.89691 6.14933C7.21553 6.14933 7.47383 5.88903 7.47383 5.56793V4.8223H12.5334ZM3.65384 9.33808V14.8554C3.65384 16.8575 4.76126 17.9392 6.74688 17.9392H13.253C15.2455 17.9392 16.3461 16.8802 16.3461 14.914L16.3461 9.33808H3.65384ZM14.001 11.7841C14.001 11.463 13.7427 11.2028 13.4241 11.2028L13.3387 11.2081C13.0571 11.2466 12.84 11.4898 12.84 11.7841C12.84 12.1052 13.0983 12.3655 13.4241 12.3655L13.5023 12.3602C13.7839 12.3217 14.001 12.0785 14.001 11.7841ZM10.0103 11.2026C10.3289 11.2026 10.5872 11.4629 10.5872 11.784C10.5872 12.0784 10.3702 12.3216 10.0886 12.3601L10.0103 12.3654C9.68457 12.3654 9.42627 12.1051 9.42627 11.784C9.42627 11.4897 9.64331 11.2464 9.92491 11.2079L10.0103 11.2026ZM7.16702 11.7841C7.16702 11.463 6.90873 11.2028 6.5901 11.2028L6.50469 11.2081C6.2231 11.2466 6.00606 11.4898 6.00606 11.7841C6.00606 12.1052 6.26435 12.3655 6.58298 12.3655L6.66839 12.3602C6.94998 12.3217 7.16702 12.0785 7.16702 11.7841ZM13.4242 14.2153C13.7428 14.2153 14.0011 14.4756 14.0011 14.7967C14.0011 15.0911 13.7841 15.3343 13.5025 15.3728L13.4242 15.3781C13.0985 15.3781 12.8402 15.1178 12.8402 14.7967C12.8402 14.5024 13.0572 14.2591 13.3388 14.2206L13.4242 14.2153ZM10.5872 14.7967C10.5872 14.4756 10.3289 14.2153 10.0103 14.2153L9.92491 14.2206C9.64331 14.2591 9.42627 14.5024 9.42627 14.7967C9.42627 15.1178 9.68457 15.3781 10.0103 15.3781L10.0886 15.3728C10.3702 15.3343 10.5872 15.0911 10.5872 14.7967ZM6.58991 14.2153C6.90853 14.2153 7.16683 14.4756 7.16683 14.7967C7.16683 15.0911 6.94979 15.3343 6.66819 15.3728L6.58278 15.3781C6.26416 15.3781 6.00586 15.1178 6.00586 14.7967C6.00586 14.5024 6.2229 14.2591 6.5045 14.2206L6.58991 14.2153Z" fill="#363636"/>
</svg>
