<svg width="20" height="20" viewBox="0 0 20 20" fill="none" xmlns="http://www.w3.org/2000/svg">
<path d="M6.66666 10.166H12.5" stroke="#0E0E0E" stroke-miterlimit="10" stroke-linecap="round" stroke-linejoin="round"/>
<path d="M6.66666 13.4993H10.3167" stroke="#0E0E0E" stroke-miterlimit="10" stroke-linecap="round" stroke-linejoin="round"/>
<path d="M8.33332 5.00008H11.6667C13.3333 5.00008 13.3333 4.16675 13.3333 3.33341C13.3333 1.66675 12.5 1.66675 11.6667 1.66675H8.33332C7.49999 1.66675 6.66666 1.66675 6.66666 3.33341C6.66666 5.00008 7.49999 5.00008 8.33332 5.00008Z" stroke="#0E0E0E" stroke-miterlimit="10" stroke-linecap="round" stroke-linejoin="round"/>
<path d="M13.3333 3.34961C16.1083 3.49961 17.5 4.52461 17.5 8.33294V13.3329C17.5 16.6663 16.6667 18.3329 12.5 18.3329H7.5C3.33333 18.3329 2.5 16.6663 2.5 13.3329V8.33294C2.5 4.53294 3.89167 3.49961 6.66667 3.34961" stroke="#0E0E0E" stroke-miterlimit="10" stroke-linecap="round" stroke-linejoin="round"/>
</svg>
