<svg width="10" height="10" viewBox="0 0 10 10" fill="none" xmlns="http://www.w3.org/2000/svg">
<path fill-rule="evenodd" clip-rule="evenodd" d="M1.882 0.539115C1.62282 0.27993 1.2026 0.27993 0.943412 0.539115C0.684227 0.798299 0.684227 1.21852 0.943412 1.4777L4.14925 4.68354L0.949055 7.88373C0.689871 8.14291 0.689871 8.56313 0.949055 8.82232C1.20824 9.0815 1.62846 9.0815 1.88765 8.82232L5.08784 5.62213L8.28803 8.82232C8.54721 9.0815 8.96743 9.0815 9.22662 8.82232C9.4858 8.56313 9.4858 8.14291 9.22662 7.88373L6.02643 4.68354L9.23226 1.4777C9.49144 1.21852 9.49144 0.798299 9.23226 0.539115C8.97307 0.27993 8.55285 0.27993 8.29367 0.539115L5.08784 3.74495L1.882 0.539115Z" fill="black"/>
</svg>
