<svg width="20" height="20" viewBox="0 0 20 20" fill="none" xmlns="http://www.w3.org/2000/svg">
<path d="M9.99982 11.6667H10.8332C11.7498 11.6667 12.4998 10.9167 12.4998 10.0001V1.66675H4.99982C3.74982 1.66675 2.65816 2.3584 2.09149 3.37507" stroke="#003FF0" stroke-linecap="round" stroke-linejoin="round"/>
<path d="M1.66669 14.1667C1.66669 15.5501 2.78335 16.6667 4.16669 16.6667H5.00002C5.00002 15.7501 5.75002 15.0001 6.66669 15.0001C7.58335 15.0001 8.33335 15.7501 8.33335 16.6667H11.6667C11.6667 15.7501 12.4167 15.0001 13.3334 15.0001C14.25 15.0001 15 15.7501 15 16.6667H15.8334C17.2167 16.6667 18.3334 15.5501 18.3334 14.1667V11.6667H15.8334C15.375 11.6667 15 11.2917 15 10.8334V8.33341C15 7.87508 15.375 7.50008 15.8334 7.50008H16.9083L15.4834 5.00842C15.1834 4.49176 14.6334 4.16675 14.0334 4.16675H12.5V10.0001C12.5 10.9167 11.75 11.6667 10.8334 11.6667H10" stroke="#003FF0" stroke-linecap="round" stroke-linejoin="round"/>
<path d="M6.66667 18.3333C7.58714 18.3333 8.33333 17.5871 8.33333 16.6667C8.33333 15.7462 7.58714 15 6.66667 15C5.74619 15 5 15.7462 5 16.6667C5 17.5871 5.74619 18.3333 6.66667 18.3333Z" stroke="#003FF0" stroke-linecap="round" stroke-linejoin="round"/>
<path d="M13.3334 18.3333C14.2538 18.3333 15 17.5871 15 16.6667C15 15.7462 14.2538 15 13.3334 15C12.4129 15 11.6667 15.7462 11.6667 16.6667C11.6667 17.5871 12.4129 18.3333 13.3334 18.3333Z" stroke="#003FF0" stroke-linecap="round" stroke-linejoin="round"/>
<path d="M18.3333 10V11.6667H15.8333C15.375 11.6667 15 11.2917 15 10.8333V8.33333C15 7.875 15.375 7.5 15.8333 7.5H16.9083L18.3333 10Z" stroke="#003FF0" stroke-linecap="round" stroke-linejoin="round"/>
<path d="M1.66669 6.66675H6.66669" stroke="#003FF0" stroke-linecap="round" stroke-linejoin="round"/>
<path d="M1.66669 9.16675H5.00002" stroke="#003FF0" stroke-linecap="round" stroke-linejoin="round"/>
<path d="M1.66669 11.6667H3.33335" stroke="#003FF0" stroke-linecap="round" stroke-linejoin="round"/>
</svg>
