<svg width="16" height="16" viewBox="0 0 16 16" fill="none" xmlns="http://www.w3.org/2000/svg">
<path d="M15.3328 11.9394C15.3461 12.4394 15.2128 12.9127 14.9728 13.3194C14.8394 13.5594 14.6595 13.7794 14.4595 13.9594C13.9995 14.3861 13.3928 14.6461 12.7194 14.6661C11.7461 14.6861 10.8861 14.1861 10.4128 13.4194C10.1594 13.0261 10.0061 12.5527 9.99945 12.0527C9.97945 11.2127 10.3528 10.4527 10.9528 9.95272C11.4061 9.57939 11.9795 9.34606 12.6061 9.33273C14.0795 9.29939 15.2995 10.466 15.3328 11.9394Z" stroke="#1C1C1C" stroke-miterlimit="10" stroke-linecap="round" stroke-linejoin="round"/>
<path d="M12.168 11H13.6662V12.5018" stroke="#1C1C1C" stroke-linecap="round" stroke-linejoin="round"/>
<path d="M13.6667 11L11.6667 13" stroke="#1C1C1C" stroke-linecap="round" stroke-linejoin="round"/>
<path d="M2.11328 4.95996L7.99994 8.36662L13.8466 4.97994" stroke="#1C1C1C" stroke-linecap="round" stroke-linejoin="round"/>
<path d="M8 14.4065V8.35986" stroke="#1C1C1C" stroke-linecap="round" stroke-linejoin="round"/>
<path d="M14.4071 6.1135V9.88685C14.4071 9.92019 14.4071 9.94682 14.4004 9.98016C13.9337 9.57349 13.3337 9.33351 12.6671 9.33351C12.0404 9.33351 11.4604 9.55351 11.0004 9.92018C10.3871 10.4068 10.0004 11.1602 10.0004 12.0002C10.0004 12.5002 10.1404 12.9735 10.3871 13.3735C10.4471 13.4802 10.5204 13.5802 10.6004 13.6735L9.38041 14.3469C8.62041 14.7735 7.3804 14.7735 6.6204 14.3469L3.0604 12.3735C2.25374 11.9268 1.59375 10.8069 1.59375 9.88685V6.1135C1.59375 5.1935 2.25374 4.07351 3.0604 3.62684L6.6204 1.6535C7.3804 1.22683 8.62041 1.22683 9.38041 1.6535L12.9404 3.62684C13.7471 4.07351 14.4071 5.1935 14.4071 6.1135Z" stroke="#1C1C1C" stroke-linecap="round" stroke-linejoin="round"/>
</svg>
