<svg width="20" height="20" viewBox="0 0 20 20" fill="none" xmlns="http://www.w3.org/2000/svg">
<path d="M12.4998 1.66675V10.0001C12.4998 10.9167 11.7498 11.6667 10.8332 11.6667H1.6665V6.35008C2.27484 7.07508 3.20819 7.52508 4.24153 7.50008C5.08319 7.48341 5.84151 7.15842 6.40817 6.61675C6.66651 6.40008 6.88319 6.12507 7.04986 5.82507C7.34986 5.31674 7.5165 4.71673 7.49984 4.09173C7.47484 3.11673 7.04152 2.25841 6.36652 1.66675H12.4998Z" stroke="#00A76A" stroke-width="1.2" stroke-linecap="round" stroke-linejoin="round"/>
<path d="M18.3332 11.6667V14.1667C18.3332 15.5501 17.2165 16.6667 15.8332 16.6667H14.9998C14.9998 15.7501 14.2498 15.0001 13.3332 15.0001C12.4165 15.0001 11.6665 15.7501 11.6665 16.6667H8.33317C8.33317 15.7501 7.58317 15.0001 6.6665 15.0001C5.74984 15.0001 4.99984 15.7501 4.99984 16.6667H4.1665C2.78317 16.6667 1.6665 15.5501 1.6665 14.1667V11.6667H10.8332C11.7498 11.6667 12.4998 10.9167 12.4998 10.0001V4.16675H14.0332C14.6332 4.16675 15.1832 4.49176 15.4832 5.00842L16.9082 7.50008H15.8332C15.3748 7.50008 14.9998 7.87508 14.9998 8.33341V10.8334C14.9998 11.2917 15.3748 11.6667 15.8332 11.6667H18.3332Z" stroke="#00A76A" stroke-width="1.2" stroke-linecap="round" stroke-linejoin="round"/>
<path d="M6.66667 18.3333C7.58714 18.3333 8.33333 17.5871 8.33333 16.6667C8.33333 15.7462 7.58714 15 6.66667 15C5.74619 15 5 15.7462 5 16.6667C5 17.5871 5.74619 18.3333 6.66667 18.3333Z" stroke="#00A76A" stroke-width="1.2" stroke-linecap="round" stroke-linejoin="round"/>
<path d="M13.3332 18.3333C14.2536 18.3333 14.9998 17.5871 14.9998 16.6667C14.9998 15.7462 14.2536 15 13.3332 15C12.4127 15 11.6665 15.7462 11.6665 16.6667C11.6665 17.5871 12.4127 18.3333 13.3332 18.3333Z" stroke="#00A76A" stroke-width="1.2" stroke-linecap="round" stroke-linejoin="round"/>
<path d="M18.3333 10V11.6667H15.8333C15.375 11.6667 15 11.2917 15 10.8333V8.33333C15 7.875 15.375 7.5 15.8333 7.5H16.9083L18.3333 10Z" stroke="#00A76A" stroke-width="1.2" stroke-linecap="round" stroke-linejoin="round"/>
<path d="M7.49917 4.09219C7.51583 4.71719 7.34919 5.3172 7.04919 5.82554C6.88252 6.12554 6.66584 6.40055 6.4075 6.61721C5.84084 7.15888 5.08252 7.48388 4.24086 7.50055C3.20752 7.52555 2.27417 7.07554 1.66583 6.35054C1.54917 6.22554 1.44917 6.08388 1.3575 5.94222C1.0325 5.45055 0.849166 4.86723 0.8325 4.24223C0.8075 3.19223 1.27416 2.23387 2.02416 1.60887C2.59083 1.14221 3.30748 0.850545 4.09081 0.833879C4.96581 0.817212 5.76585 1.13388 6.36585 1.66721C7.04085 2.25888 7.47417 3.11719 7.49917 4.09219Z" stroke="#00A76A" stroke-width="1.2" stroke-miterlimit="10" stroke-linecap="round" stroke-linejoin="round"/>
<path d="M2.86621 4.19222L3.70789 4.99219L5.44952 3.30884" stroke="#00A76A" stroke-width="1.2" stroke-linecap="round" stroke-linejoin="round"/>
</svg>
