<svg width="20" height="20" viewBox="0 0 20 20" fill="none" xmlns="http://www.w3.org/2000/svg">
<path d="M2.6416 6.19922L9.99992 10.4575L17.3082 6.22419" stroke="#1A1D21" stroke-width="1.2" stroke-linecap="round" stroke-linejoin="round"/>
<path d="M10 18.0071V10.4487" stroke="#1A1D21" stroke-width="1.2" stroke-linecap="round" stroke-linejoin="round"/>
<path d="M8.2755 2.0665L3.82551 4.54153C2.81717 5.09986 1.99219 6.49985 1.99219 7.64985V12.3582C1.99219 13.5082 2.81717 14.9082 3.82551 15.4665L8.2755 17.9415C9.2255 18.4665 10.7838 18.4665 11.7338 17.9415L16.1839 15.4665C17.1922 14.9082 18.0172 13.5082 18.0172 12.3582V7.64985C18.0172 6.49985 17.1922 5.09986 16.1839 4.54153L11.7338 2.0665C10.7755 1.53317 9.2255 1.53317 8.2755 2.0665Z" stroke="#1A1D21" stroke-width="1.2" stroke-linecap="round" stroke-linejoin="round"/>
<path d="M14.1665 11.0332V7.98321L6.25815 3.4165" stroke="#1A1D21" stroke-width="1.2" stroke-linecap="round" stroke-linejoin="round"/>
</svg>
