<svg width="20" height="20" viewBox="0 0 20 20" fill="none" xmlns="http://www.w3.org/2000/svg">
<path d="M19.166 14.9242C19.1827 15.5492 19.016 16.1409 18.716 16.6492C18.5493 16.9492 18.3243 17.2242 18.0743 17.4492C17.4993 17.9826 16.741 18.3076 15.8993 18.3326C14.6827 18.3576 13.6077 17.7326 13.016 16.7742C12.6993 16.2826 12.5077 15.6909 12.4993 15.0659C12.4743 14.0159 12.941 13.0659 13.691 12.4409C14.2577 11.9742 14.9743 11.6826 15.7577 11.6659C17.5993 11.6242 19.1243 13.0826 19.166 14.9242Z" stroke="#007DDC" stroke-width="1.2" stroke-miterlimit="10" stroke-linecap="round" stroke-linejoin="round"/>
<path d="M14.5329 15.024L15.3746 15.824L17.1162 14.1406" stroke="#007DDC" stroke-width="1.2" stroke-linecap="round" stroke-linejoin="round"/>
<path d="M2.6416 6.19971L9.99992 10.458L17.3082 6.22468" stroke="#007DDC" stroke-width="1.2" stroke-linecap="round" stroke-linejoin="round"/>
<path d="M10 18.0078V10.4495" stroke="#007DDC" stroke-width="1.2" stroke-linecap="round" stroke-linejoin="round"/>
<path d="M18.0088 7.64175V12.3584C18.0088 12.4001 18.0088 12.4334 18.0005 12.4751C17.4172 11.9667 16.6672 11.6668 15.8338 11.6668C15.0505 11.6668 14.3255 11.9418 13.7505 12.4001C12.9838 13.0084 12.5005 13.9501 12.5005 15.0001C12.5005 15.6251 12.6755 16.2168 12.9838 16.7168C13.0588 16.8501 13.1505 16.9751 13.2505 17.0918L11.7255 17.9334C10.7755 18.4668 9.2255 18.4668 8.2755 17.9334L3.82551 15.4668C2.81717 14.9084 1.99219 13.5084 1.99219 12.3584V7.64175C1.99219 6.49175 2.81717 5.09177 3.82551 4.53343L8.2755 2.06675C9.2255 1.53341 10.7755 1.53341 11.7255 2.06675L16.1755 4.53343C17.1838 5.09177 18.0088 6.49175 18.0088 7.64175Z" stroke="#007DDC" stroke-width="1.2" stroke-linecap="round" stroke-linejoin="round"/>
</svg>
