<svg width="19" height="18" viewBox="0 0 19 18" fill="none" xmlns="http://www.w3.org/2000/svg">
<path fill-rule="evenodd" clip-rule="evenodd" d="M6.64466 7.67815L12.1568 2.17515C13.0595 1.27495 14.5224 1.27495 15.4251 2.17515L16.3229 3.07151C17.2257 3.97276 17.2257 5.4345 16.3229 6.33478L10.7844 11.8641C10.3804 12.2674 9.83252 12.4942 9.2611 12.4942H6.49813C6.18723 12.4942 5.93739 12.2384 5.94512 11.9282L6.01445 9.14456C6.02836 8.5933 6.25389 8.06827 6.64466 7.67815ZM15.5406 3.85253L14.6432 2.9566C14.1725 2.48718 13.4094 2.48718 12.9389 2.95639L12.4854 3.40918L15.0871 6.00655L15.5408 5.55355C16.0112 5.08443 16.0112 4.32237 15.5406 3.85253ZM14.3047 6.78757L11.7031 4.1902L7.42699 8.45917C7.23692 8.64891 7.12723 8.90427 7.12048 9.17219L7.06474 11.389L9.2611 11.3896C9.50426 11.3896 9.7387 11.3052 9.92523 11.1526L10.0021 11.0831L14.3047 6.78757ZM9.00111 1.52842C9.30662 1.52842 9.55429 1.77568 9.55429 2.08069C9.55429 2.36028 9.34618 2.59135 9.07617 2.62791L9.00111 2.63296H6.2433C4.38345 2.63296 3.17878 3.86467 3.10952 5.77743L3.10637 5.95318V12.0752C3.10637 14.0314 4.25246 15.3181 6.0757 15.3921L6.2433 15.3955H12.7517C14.6162 15.3955 15.8172 14.1664 15.8862 12.2512L15.8894 12.0752V9.1092C15.8894 8.80419 16.137 8.55694 16.4425 8.55694C16.7226 8.55694 16.9541 8.7647 16.9907 9.03426L16.9957 9.1092V12.0752C16.9957 14.6246 15.3782 16.417 12.9243 16.4972L12.7517 16.5H6.2433C3.75148 16.5 2.07742 14.7654 2.00261 12.2519L2 12.0752V5.95318C2 3.40634 3.62169 1.6115 6.07108 1.53123L6.2433 1.52842H9.00111Z" fill="#363636"/>
</svg>
