<svg width="16" height="16" viewBox="0 0 16 16" fill="none" xmlns="http://www.w3.org/2000/svg">
<path d="M6.00016 14.6666H10.0002C13.3335 14.6666 14.6668 13.3333 14.6668 9.99992V5.99992C14.6668 2.66659 13.3335 1.33325 10.0002 1.33325H6.00016C2.66683 1.33325 1.3335 2.66659 1.3335 5.99992V9.99992C1.3335 13.3333 2.66683 14.6666 6.00016 14.6666Z" stroke="#0A0A0A" stroke-linecap="round" stroke-linejoin="round"/>
<path d="M5.99984 6.66667C6.73622 6.66667 7.33317 6.06971 7.33317 5.33333C7.33317 4.59695 6.73622 4 5.99984 4C5.26346 4 4.6665 4.59695 4.6665 5.33333C4.6665 6.06971 5.26346 6.66667 5.99984 6.66667Z" stroke="#0A0A0A" stroke-linecap="round" stroke-linejoin="round"/>
<path d="M1.77979 12.6338L5.06645 10.4271C5.59312 10.0738 6.35312 10.1138 6.82645 10.5204L7.04645 10.7138C7.56645 11.1604 8.40645 11.1604 8.92645 10.7138L11.6998 8.33378C12.2198 7.88711 13.0598 7.88711 13.5798 8.33378L14.6665 9.26711" stroke="#0A0A0A" stroke-linecap="round" stroke-linejoin="round"/>
</svg>
