<svg width="29" height="28" viewBox="0 0 29 28" fill="none" xmlns="http://www.w3.org/2000/svg">
<path d="M3.33728 9.07648V20.4281C3.33728 22.6448 4.91228 23.5548 6.82561 22.4581L9.56728 20.8948C10.1623 20.5565 11.1539 20.5215 11.7723 20.8365L17.8973 23.9048C18.5156 24.2081 19.5073 24.1848 20.1023 23.8465L25.1539 20.9531C25.7956 20.5798 26.3323 19.6698 26.3323 18.9231V7.57148C26.3323 5.35481 24.7573 4.44481 22.8439 5.54148L20.1023 7.10481C19.5073 7.44314 18.5156 7.47814 17.8973 7.16314L11.7723 4.10648C11.1539 3.80314 10.1623 3.82648 9.56728 4.16481L4.51561 7.05814C3.86228 7.43148 3.33728 8.34148 3.33728 9.07648Z" fill="#003FF0" stroke="white" stroke-width="1.5" stroke-linecap="round" stroke-linejoin="round"/>
<path d="M10.654 4.6665V19.8332" stroke="white" stroke-width="1.5" stroke-linecap="round" stroke-linejoin="round"/>
<path d="M19.0189 7.72217V23.3322" stroke="white" stroke-width="1.5" stroke-linecap="round" stroke-linejoin="round"/>
</svg>
