<svg width="28" height="28" viewBox="0 0 28 28" fill="none" xmlns="http://www.w3.org/2000/svg">
<path d="M2.67059 9.07672V20.4284C2.67059 22.6451 4.24559 23.5551 6.15893 22.4584L8.90059 20.8951C9.49559 20.5567 10.4873 20.5217 11.1056 20.8367L17.2306 23.9051C17.8489 24.2084 18.8406 24.1851 19.4356 23.8467L24.4873 20.9534C25.1289 20.5801 25.6656 19.6701 25.6656 18.9234V7.57172C25.6656 5.35505 24.0906 4.44505 22.1773 5.54172L19.4356 7.10505C18.8406 7.44339 17.8489 7.47839 17.2306 7.16339L11.1056 4.10672C10.4873 3.80339 9.49559 3.82672 8.90059 4.16505L3.84893 7.05839C3.19559 7.43172 2.67059 8.34172 2.67059 9.07672Z" stroke="#28292B" stroke-width="1.5" stroke-linecap="round" stroke-linejoin="round"/>
<path d="M9.9873 4.66675V19.8334" stroke="#28292B" stroke-width="1.5" stroke-linecap="round" stroke-linejoin="round"/>
<path d="M18.3522 7.72241V23.3324" stroke="#28292B" stroke-width="1.5" stroke-linecap="round" stroke-linejoin="round"/>
</svg>
