<svg width="28" height="28" viewBox="0 0 28 28" fill="none" xmlns="http://www.w3.org/2000/svg">
<g clip-path="url(#clip0_2674_7910)">
<path d="M9.87708 14.4692H3.64932C3.52158 14.4692 3.41797 14.5728 3.41797 14.7006V26.3512H10.1084V14.7006C10.1084 14.5728 10.0048 14.4692 9.87708 14.4692Z" fill="#78C2A4"/>
<path d="M7.92093 14.4692V24.2666C7.92093 24.8139 7.47723 25.2574 6.93015 25.2574H3.41797V26.3512H10.1084V14.7006C10.1084 14.5728 10.0048 14.4692 9.87708 14.4692H7.92093Z" fill="#4FAB86"/>
<path d="M4.78516 24.7853V16.0353C4.78516 15.9255 4.87402 15.8364 4.98404 15.8364H8.54236C8.65216 15.8364 8.74124 15.9255 8.74124 16.0353V24.7853C8.74124 24.8951 8.65216 24.984 8.54236 24.984H4.98404C4.87424 24.984 4.78516 24.8951 4.78516 24.7853Z" fill="#B2EBF2"/>
<path d="M7.10062 15.8364V22.4568C7.10062 23.2485 6.45889 23.8904 5.66699 23.8904H4.78516V24.7853C4.78516 24.8951 4.87402 24.9842 4.98404 24.9842H8.54236C8.65216 24.9842 8.74124 24.8951 8.74124 24.7853V16.0353C8.74124 15.9255 8.65216 15.8366 8.54236 15.8366H7.10062V15.8364Z" fill="#80DEEA"/>
<path d="M0.410156 24.4172H3.41776V26.3514H0.410156V24.4172Z" fill="#78909C"/>
<path d="M0.410156 25.2578H3.41776V26.3516H0.410156V25.2578Z" fill="#546E7A"/>
<path d="M10.1084 24.4172H27.59V26.3514H10.1084V24.4172Z" fill="#78909C"/>
<path d="M25.4025 24.4172V24.6787C25.4025 24.9983 25.1434 25.2574 24.8236 25.2574H10.1084V26.3512H27.59V24.4172H25.4025Z" fill="#546E7A"/>
<path d="M1.23096 12.1841V24.4174H3.4176V14.7008C3.4176 14.573 3.52121 14.4694 3.64874 14.4694H9.87671C10.0045 14.4694 10.1081 14.573 10.1081 14.7008V24.4174H26.7687V12.1841H1.23096Z" fill="#DCE6EB"/>
<path d="M26.7687 12.1841V24.4174H10.1081V23.3237H20.5218C22.7637 23.3237 24.5812 21.5062 24.5812 19.2642V12.1841H26.7687ZM1.23096 23.3237V24.4174H3.4176V23.3237H1.23096Z" fill="#B9C3CD"/>
<path d="M22.8106 21.1245H14.0668C13.8333 21.1245 13.644 20.9352 13.644 20.7017V14.892C13.644 14.6585 13.8333 14.4692 14.0668 14.4692H22.8106C23.0441 14.4692 23.2334 14.6585 23.2334 14.892V20.7017C23.2334 20.9352 23.0441 21.1245 22.8106 21.1245Z" fill="#B2EBF2"/>
<path d="M22.8106 14.4692H21.0459V18.4185C21.0459 19.3089 20.324 20.0307 19.4334 20.0307H13.644V20.7017C13.644 20.9352 13.8333 21.1245 14.0668 21.1245H22.8106C23.0441 21.1245 23.2334 20.9352 23.2334 20.7017V14.892C23.2334 14.6585 23.0441 14.4692 22.8106 14.4692Z" fill="#80DEEA"/>
<path d="M10.071 18.6924V22.1281H8.74121V18.6924H10.071Z" fill="#78909C"/>
<path d="M19.4462 21.1245H17.4307V19.7652C17.4307 19.2085 17.8818 18.7576 18.4383 18.7576C18.995 18.7576 19.446 19.2087 19.446 19.7652V21.1245H19.4462Z" fill="#80DEEA"/>
<path d="M20.1095 16.6121C20.1095 17.066 19.7414 17.4339 19.2877 17.4339H17.5894C17.1354 17.4339 16.7676 17.066 16.7676 16.6121C16.7676 16.1584 17.1354 15.7903 17.5894 15.7903H19.2877C19.7414 15.7903 20.1095 16.1584 20.1095 16.6121Z" fill="#FFC14F"/>
<path d="M19.2878 15.7903H19.2412C19.2717 15.8764 19.2892 15.9687 19.2892 16.0652C19.2892 16.5192 18.9214 16.8872 18.4674 16.8872H16.8159C16.9291 17.2055 17.2323 17.4341 17.5894 17.4341H19.2878C19.7417 17.4341 20.1096 17.066 20.1096 16.6121C20.1098 16.1584 19.7417 15.7903 19.2878 15.7903Z" fill="#FFA90B"/>
<path d="M17.5894 15.7903C17.1354 15.7903 16.7676 16.1584 16.7676 16.6121C16.7676 17.066 17.1354 17.4339 17.5894 17.4339H18.4383V15.7903H17.5894Z" fill="#E04955"/>
<path d="M18.4386 16.8872H16.8159C16.9208 17.1822 17.1893 17.4001 17.5132 17.43C17.5717 17.4356 17.5153 17.4341 18.4388 17.4341V16.8872H18.4386Z" fill="#C62430"/>
<path d="M27.5898 5.33008H0.410156C0.183716 5.33008 0 5.51379 0 5.74023V11.7738C0 12.0005 0.183716 12.184 0.410156 12.184H27.5898C27.8165 12.184 28 12.0005 28 11.7738V5.74023C28 5.51379 27.8165 5.33008 27.5898 5.33008Z" fill="#78C2A4"/>
<path d="M27.5898 5.33008H25.8125V7.14417C25.8125 9.32355 24.0458 11.0902 21.8665 11.0902H0V11.7738C0 12.0005 0.183716 12.184 0.410156 12.184H27.5898C27.8163 12.184 28 12.0005 28 11.7738V5.74023C28 5.51379 27.8163 5.33008 27.5898 5.33008Z" fill="#4FAB86"/>
<path d="M11.6921 12.184H10.8718V5.33008H11.6921V12.184ZM8.97415 5.33008H8.15384V12.184H8.97415V5.33008ZM2.71777 12.184H3.53809V5.33008H2.71777V12.184ZM6.25601 5.33008H5.4357V12.184H6.25601V5.33008ZM14.41 5.33008H13.5897V12.184H14.41V5.33008ZM22.564 5.33008H21.7437V12.184H22.564V5.33008ZM25.2819 5.33008H24.4616V12.184H25.2819V5.33008ZM17.1279 5.33008H16.3076V12.184H17.1279V5.33008ZM19.8459 5.33008H19.0255V12.184H19.8459V5.33008Z" fill="#4FAB86"/>
<path d="M11.6921 11.0903V12.1841H10.8718V11.0903H11.6921ZM8.15384 11.0903V12.1841H8.97415V11.0903H8.15384ZM5.4357 11.0903V12.1841H6.25601V11.0903H5.4357ZM2.71777 11.0903V12.1841H3.53809V11.0903H2.71777ZM13.5897 11.0903V12.1841H14.41V11.0903H13.5897ZM21.8663 11.0903H21.7437V12.1841H22.564V11.0277C22.3373 11.0681 22.1045 11.0903 21.8663 11.0903ZM16.3076 11.0903V12.1841H17.1279V11.0903H16.3076ZM24.4616 10.1155V12.1841H25.2819V9.11963C25.0642 9.49518 24.7865 9.83142 24.4616 10.1155ZM19.0255 11.0903V12.1841H19.8459V11.0903H19.0255Z" fill="#00897B"/>
<path d="M18.0997 5.74026C18.0997 8.00446 16.2642 9.8399 14 9.8399C11.7358 9.8399 9.90039 8.00446 9.90039 5.74026C9.90039 3.47607 11.7358 1.64062 14 1.64062C16.2642 1.64062 18.0997 3.47607 18.0997 5.74026Z" fill="#E04955"/>
<path d="M14.6544 1.69312C15.4292 2.43909 15.9122 3.48605 15.9122 4.64645C15.9122 6.91064 14.0767 8.74609 11.8125 8.74609C11.5897 8.74609 11.3714 8.72772 11.1582 8.69354C11.8952 9.40277 12.8962 9.83984 14 9.83984C16.2642 9.83984 18.0997 8.00439 18.0997 5.7402C18.0997 3.69882 16.6073 2.0065 14.6544 1.69312Z" fill="#C62430"/>
<path d="M16.0109 4.97269H15.0382C14.8887 4.97269 14.7676 4.85156 14.7676 4.70224V3.7294C14.7676 3.58008 14.6465 3.45874 14.4971 3.45874H13.5031C13.3536 3.45874 13.2325 3.58008 13.2325 3.7294V4.70224C13.2325 4.85156 13.1114 4.97269 12.962 4.97269H11.9892C11.8399 4.97269 11.7188 5.09381 11.7188 5.24335V6.23734C11.7188 6.38666 11.8399 6.50778 11.9892 6.50778H12.962C13.1114 6.50778 13.2325 6.62891 13.2325 6.77823V7.75107C13.2325 7.9006 13.3536 8.02173 13.5031 8.02173H14.4971C14.6465 8.02173 14.7676 7.9006 14.7676 7.75107V6.77823C14.7676 6.62891 14.8887 6.50778 15.0382 6.50778H16.0109C16.1604 6.50778 16.2815 6.38666 16.2815 6.23734V5.24335C16.2815 5.09381 16.1604 4.97269 16.0109 4.97269Z" fill="#DCE6EB"/>
<path d="M16.2815 6.2373V5.24332C16.2815 5.09378 16.1604 4.97266 16.0109 4.97266H15.8981C15.8547 5.52209 15.7035 6.04077 15.4648 6.50775H16.0109C16.1604 6.50775 16.2815 6.38663 16.2815 6.2373Z" fill="#B9C3CD"/>
<path d="M14.4969 8.02167C14.6462 8.02167 14.7674 7.90054 14.7674 7.75101V7.48633C14.5764 7.685 14.366 7.86465 14.1387 8.02167H14.4969Z" fill="#B9C3CD"/>
</g>
<defs>
<clipPath id="clip0_2674_7910">
<rect width="28" height="28" fill="white"/>
</clipPath>
</defs>
</svg>
