<svg width="42" height="42" viewBox="0 0 42 42" fill="none" xmlns="http://www.w3.org/2000/svg">
<rect width="42" height="42" rx="21" fill="#EAEBF5"/>
<path d="M14.3774 17.5796L20.9999 21.4121L27.5774 17.6021" stroke="#003FF0" stroke-linecap="round" stroke-linejoin="round"/>
<path d="M21 28.2068V21.4043" stroke="#003FF0" stroke-linecap="round" stroke-linejoin="round"/>
<path d="M19.448 13.86L15.443 16.0875C14.5355 16.59 13.793 17.85 13.793 18.885V23.1225C13.793 24.1575 14.5355 25.4175 15.443 25.92L19.448 28.1475C20.303 28.62 21.7054 28.62 22.5604 28.1475L26.5655 25.92C27.473 25.4175 28.2155 24.1575 28.2155 23.1225V18.885C28.2155 17.85 27.473 16.59 26.5655 16.0875L22.5604 13.86C21.6979 13.38 20.303 13.38 19.448 13.86Z" stroke="#003FF0" stroke-linecap="round" stroke-linejoin="round"/>
<path d="M24.7498 21.9297V19.1847L17.6323 15.0747" stroke="#003FF0" stroke-linecap="round" stroke-linejoin="round"/>
</svg>
