<svg width="18" height="18" viewBox="0 0 18 18" fill="none" xmlns="http://www.w3.org/2000/svg">
<path d="M16.5 13.7475C16.5 14.0175 16.4399 14.295 16.3122 14.565C16.1845 14.835 16.0192 15.09 15.8014 15.33C15.4334 15.735 15.0278 16.0275 14.5696 16.215C14.1189 16.4025 13.6307 16.5 13.1049 16.5C12.3387 16.5 11.52 16.32 10.6562 15.9525C9.79242 15.585 8.92867 15.09 8.07233 14.4675C7.20857 13.8375 6.38983 13.14 5.60867 12.3675C4.835 11.5875 4.13646 10.77 3.51302 9.915C2.89709 9.06 2.40135 8.205 2.04081 7.3575C1.68027 6.5025 1.5 5.685 1.5 4.905C1.5 4.395 1.59013 3.9075 1.77041 3.4575C1.95068 3 2.23611 2.58 2.6342 2.205C3.11493 1.7325 3.64071 1.5 4.19654 1.5C4.40686 1.5 4.61717 1.545 4.80496 1.635C5.00025 1.725 5.17301 1.86 5.30822 2.055L7.05082 4.5075C7.18603 4.695 7.28367 4.8675 7.35125 5.0325C7.41892 5.19 7.45642 5.3475 7.45642 5.49C7.45642 5.67 7.40383 5.85 7.2987 6.0225C7.20105 6.195 7.05834 6.375 6.87807 6.555L6.30721 7.1475C6.22458 7.23 6.18703 7.3275 6.18703 7.4475C6.18703 7.5075 6.19454 7.56 6.20957 7.62C6.2321 7.68 6.25463 7.725 6.26966 7.77C6.40486 8.0175 6.63771 8.34 6.9682 8.73C7.30621 9.12 7.66675 9.5175 8.05733 9.915C8.46292 10.3125 8.8535 10.68 9.25167 11.0175C9.64225 11.3475 9.96517 11.5725 10.2206 11.7075C10.2582 11.7225 10.3032 11.745 10.3557 11.7675C10.4158 11.79 10.476 11.7975 10.5436 11.7975C10.6712 11.7975 10.7689 11.7525 10.8515 11.67L11.4224 11.1075C11.6102 10.92 11.7904 10.7775 11.9632 10.6875C12.1359 10.5825 12.3088 10.53 12.4965 10.53C12.6393 10.53 12.7894 10.56 12.9547 10.6275C13.1199 10.695 13.2927 10.7925 13.4805 10.92L15.9667 12.6825C16.162 12.8175 16.2972 12.975 16.3798 13.1625C16.4549 13.35 16.5 13.5375 16.5 13.7475Z" stroke="#212529" stroke-width="1.2" stroke-miterlimit="10"/>
</svg>
