<svg width="20" height="20" viewBox="0 0 20 20" fill="none" xmlns="http://www.w3.org/2000/svg">
<path d="M2.6416 6.19971L9.99992 10.458L17.3082 6.22468" stroke="#B064F7" stroke-width="1.2" stroke-linecap="round" stroke-linejoin="round"/>
<path d="M10 18.0078V10.4495" stroke="#B064F7" stroke-width="1.2" stroke-linecap="round" stroke-linejoin="round"/>
<path d="M18.0088 10.6918V7.64175C18.0088 6.49175 17.1838 5.09177 16.1755 4.53343L11.7255 2.06675C10.7755 1.53341 9.2255 1.53341 8.2755 2.06675L3.82551 4.53343C2.81717 5.09177 1.99219 6.49175 1.99219 7.64175V12.3584C1.99219 13.5084 2.81717 14.9084 3.82551 15.4668L8.2755 17.9334C8.7505 18.2001 9.37551 18.3334 10.0005 18.3334C10.6255 18.3334 11.2505 18.2001 11.7255 17.9334" stroke="#B064F7" stroke-width="1.2" stroke-linecap="round" stroke-linejoin="round"/>
<path d="M16 17.8334C17.4728 17.8334 18.6667 16.6394 18.6667 15.1667C18.6667 13.6939 17.4728 12.5 16 12.5C14.5273 12.5 13.3333 13.6939 13.3333 15.1667C13.3333 16.6394 14.5273 17.8334 16 17.8334Z" stroke="#B064F7" stroke-width="1.2" stroke-linecap="round" stroke-linejoin="round"/>
<path d="M19.1667 18.3333L18.3333 17.5" stroke="#B064F7" stroke-width="1.2" stroke-linecap="round" stroke-linejoin="round"/>
</svg>
