<svg width="28" height="28" viewBox="0 0 28 28" fill="none" xmlns="http://www.w3.org/2000/svg">
<path d="M14.1873 12.6816C14.0706 12.6699 13.9306 12.6699 13.8023 12.6816C11.0256 12.5883 8.82062 10.3133 8.82062 7.51325C8.82062 4.65492 11.1306 2.33325 14.0006 2.33325C16.859 2.33325 19.1806 4.65492 19.1806 7.51325C19.169 10.3133 16.964 12.5883 14.1873 12.6816Z" stroke="#28292B" stroke-width="1.5" stroke-linecap="round" stroke-linejoin="round"/>
<path d="M8.35413 16.9867C5.5308 18.8767 5.5308 21.9567 8.35413 23.8351C11.5625 25.9817 16.8241 25.9817 20.0325 23.8351C22.8558 21.9451 22.8558 18.8651 20.0325 16.9867C16.8358 14.8517 11.5741 14.8517 8.35413 16.9867Z" stroke="#28292B" stroke-width="1.5" stroke-linecap="round" stroke-linejoin="round"/>
</svg>
