<svg width="20" height="20" viewBox="0 0 20 20" fill="none" xmlns="http://www.w3.org/2000/svg">
<path d="M10.1004 10.6505C10.0421 10.6421 9.96709 10.6421 9.90042 10.6505C8.43376 10.6005 7.26709 9.40047 7.26709 7.92547C7.26709 6.41714 8.48376 5.19214 10.0004 5.19214C11.5088 5.19214 12.7338 6.41714 12.7338 7.92547C12.7254 9.40047 11.5671 10.6005 10.1004 10.6505Z" stroke="#212529" stroke-width="1.2" stroke-linecap="round" stroke-linejoin="round"/>
<path d="M15.6166 16.1505C14.1333 17.5089 12.1666 18.3339 9.99997 18.3339C7.8333 18.3339 5.86663 17.5089 4.3833 16.1505C4.46663 15.3672 4.96663 14.6005 5.8583 14.0005C8.14163 12.4839 11.875 12.4839 14.1416 14.0005C15.0333 14.6005 15.5333 15.3672 15.6166 16.1505Z" stroke="#212529" stroke-width="1.2" stroke-linecap="round" stroke-linejoin="round"/>
<path d="M9.99984 18.3334C14.6022 18.3334 18.3332 14.6025 18.3332 10.0001C18.3332 5.39771 14.6022 1.66675 9.99984 1.66675C5.39746 1.66675 1.6665 5.39771 1.6665 10.0001C1.6665 14.6025 5.39746 18.3334 9.99984 18.3334Z" stroke="#212529" stroke-width="1.2" stroke-linecap="round" stroke-linejoin="round"/>
</svg>
