<svg width="28" height="28" viewBox="0 0 28 28" fill="none" xmlns="http://www.w3.org/2000/svg">
<path d="M14.1873 12.6818C14.0706 12.6702 13.9306 12.6702 13.8023 12.6818C11.0256 12.5885 8.82062 10.3135 8.82062 7.5135C8.82062 4.65516 11.1306 2.3335 14.0006 2.3335C16.859 2.3335 19.1806 4.65516 19.1806 7.5135C19.169 10.3135 16.964 12.5885 14.1873 12.6818Z" fill="#003FF0"/>
<path d="M8.35413 16.9865C5.5308 18.8765 5.5308 21.9565 8.35413 23.8348C11.5625 25.9815 16.8241 25.9815 20.0325 23.8348C22.8558 21.9448 22.8558 18.8648 20.0325 16.9865C16.8358 14.8515 11.5741 14.8515 8.35413 16.9865Z" fill="#003FF0"/>
</svg>
