<svg width="44" height="50" viewBox="0 0 44 50" fill="none" xmlns="http://www.w3.org/2000/svg">
<rect opacity="0.3" x="15.5205" y="27.6738" width="13.1164" height="13.1164" rx="6.55822" fill="url(#paint0_linear_3130_2532)"/>
<rect x="18.0709" y="30.2241" width="8.0156" height="8.0156" rx="4.0078" fill="url(#paint1_linear_3130_2532)"/>
<g filter="url(#filter0_d_3130_2532)">
<path fill-rule="evenodd" clip-rule="evenodd" d="M21.9855 34.9647C25.2646 32.6903 33.6445 23.0982 33.6445 16.6591C33.6445 10.2199 28.4246 5 21.9855 5C15.5464 5 10.3264 10.2199 10.3264 16.6591C10.3264 23.0982 19.0707 32.6903 21.9855 34.9647ZM21.9884 9.24276C17.8908 9.24276 14.569 12.5645 14.569 16.6622C14.569 20.7598 17.8908 24.0816 21.9884 24.0816C26.086 24.0816 29.4078 20.7598 29.4078 16.6622C29.4078 12.5645 26.086 9.24276 21.9884 9.24276Z" fill="url(#paint2_linear_3130_2532)"/>
</g>
<defs>
<filter id="filter0_d_3130_2532" x="0.787169" y="0.40703" width="42.3966" height="49.0433" filterUnits="userSpaceOnUse" color-interpolation-filters="sRGB">
<feFlood flood-opacity="0" result="BackgroundImageFix"/>
<feColorMatrix in="SourceAlpha" type="matrix" values="0 0 0 0 0 0 0 0 0 0 0 0 0 0 0 0 0 0 127 0" result="hardAlpha"/>
<feOffset dy="4.94628"/>
<feGaussianBlur stdDeviation="4.76962"/>
<feComposite in2="hardAlpha" operator="out"/>
<feColorMatrix type="matrix" values="0 0 0 0 0 0 0 0 0 0 0 0 0 0 0 0 0 0 0.05 0"/>
<feBlend mode="normal" in2="BackgroundImageFix" result="effect1_dropShadow_3130_2532"/>
<feBlend mode="normal" in="SourceGraphic" in2="effect1_dropShadow_3130_2532" result="shape"/>
</filter>
<linearGradient id="paint0_linear_3130_2532" x1="22.0787" y1="27.6738" x2="22.0787" y2="40.7903" gradientUnits="userSpaceOnUse">
<stop stop-color="#FF9D9E"/>
<stop offset="1" stop-color="#CE0003"/>
</linearGradient>
<linearGradient id="paint1_linear_3130_2532" x1="22.0787" y1="30.2241" x2="22.0787" y2="38.2397" gradientUnits="userSpaceOnUse">
<stop stop-color="#FF9D9E"/>
<stop offset="1" stop-color="#CE0003"/>
</linearGradient>
<linearGradient id="paint2_linear_3130_2532" x1="21.9855" y1="5" x2="21.9855" y2="34.9647" gradientUnits="userSpaceOnUse">
<stop stop-color="#FF9D9E"/>
<stop offset="1" stop-color="#CE0003"/>
</linearGradient>
</defs>
</svg>
