<svg width="20" height="20" viewBox="0 0 20 20" fill="none" xmlns="http://www.w3.org/2000/svg">
<rect x="0.5" y="0.5" width="19" height="19" rx="9.5" stroke="#003FF0"/>
<path d="M9.43288 14V8.23099H10.5559V14H9.43288ZM10 7.34084C9.80472 7.34084 9.63695 7.27574 9.49673 7.14554C9.35902 7.01283 9.29016 6.85509 9.29016 6.6723C9.29016 6.48701 9.35902 6.32926 9.49673 6.19906C9.63695 6.06635 9.80472 6 10 6C10.1953 6 10.3618 6.06635 10.4996 6.19906C10.6398 6.32926 10.7099 6.48701 10.7099 6.6723C10.7099 6.85509 10.6398 7.01283 10.4996 7.14554C10.3618 7.27574 10.1953 7.34084 10 7.34084Z" fill="#003FF0"/>
</svg>
