<svg width="20" height="20" viewBox="0 0 20 20" fill="none" xmlns="http://www.w3.org/2000/svg">
<rect x="0.5" y="0.5" width="19" height="19" rx="9.5" stroke="#646464"/>
<path d="M9.43276 14V8.23099H10.5558V14H9.43276ZM9.9999 7.34084C9.80459 7.34084 9.63683 7.27574 9.49661 7.14554C9.3589 7.01283 9.29004 6.85509 9.29004 6.6723C9.29004 6.48701 9.3589 6.32926 9.49661 6.19906C9.63683 6.06635 9.80459 6 9.9999 6C10.1952 6 10.3617 6.06635 10.4994 6.19906C10.6396 6.32926 10.7098 6.48701 10.7098 6.6723C10.7098 6.85509 10.6396 7.01283 10.4994 7.14554C10.3617 7.27574 10.1952 7.34084 9.9999 7.34084Z" fill="#646464"/>
</svg>
