<svg width="40" height="20" viewBox="0 0 40 20" fill="none" xmlns="http://www.w3.org/2000/svg">
<path d="M7.17548 14.865C6.94222 15.1239 6.9414 15.5445 7.17367 15.8044C7.38481 16.0408 7.71589 16.063 7.9496 15.8706L8.01657 15.8065L12.8245 10.4712C13.0372 10.2351 13.0566 9.86482 12.8826 9.60437L12.8246 9.52977L8.01661 4.19358C7.78336 3.93471 7.40598 3.93558 7.1737 4.19553C6.96254 4.43184 6.94399 4.80091 7.1176 5.06056L7.17545 5.13493L11.559 10.0007L7.17548 14.865Z" fill="#C74141" fill-opacity="0.32"/>
<path d="M17.1755 14.865C16.9422 15.1239 16.9414 15.5445 17.1737 15.8044C17.3848 16.0408 17.7159 16.063 17.9496 15.8706L18.0166 15.8065L22.8245 10.4712C23.0372 10.2351 23.0566 9.86482 22.8826 9.60437L22.8246 9.52977L18.0166 4.19358C17.7834 3.93471 17.406 3.93558 17.1737 4.19553C16.9625 4.43184 16.944 4.80091 17.1176 5.06056L17.1754 5.13493L21.559 10.0007L17.1755 14.865Z" fill="#C74141" fill-opacity="0.64"/>
<path d="M27.1755 14.865C26.9422 15.1239 26.9414 15.5445 27.1737 15.8044C27.3848 16.0408 27.7159 16.063 27.9496 15.8706L28.0166 15.8065L32.8245 10.4712C33.0372 10.2351 33.0566 9.86482 32.8826 9.60437L32.8246 9.52977L28.0166 4.19358C27.7834 3.93471 27.406 3.93558 27.1737 4.19553C26.9625 4.43184 26.944 4.80091 27.1176 5.06056L27.1754 5.13493L31.559 10.0007L27.1755 14.865Z" fill="#C74141"/>
</svg>
