<svg width="19" height="18" viewBox="0 0 19 18" fill="none" xmlns="http://www.w3.org/2000/svg">
<path fill-rule="evenodd" clip-rule="evenodd" d="M8.9986 1.51611C10.783 1.51611 12.2395 2.92156 12.3212 4.68579L12.3248 4.84236V5.54211C12.3248 5.85277 12.073 6.10461 11.7623 6.10461C11.4776 6.10461 11.2422 5.893 11.205 5.61844L11.1998 5.54211V4.84236C11.1998 3.67019 10.2833 2.71181 9.12792 2.64485L8.9986 2.64111H5.34235C4.1708 2.64111 3.21254 3.55771 3.14558 4.71305L3.14185 4.84236V13.1899C3.14185 14.3619 4.05827 15.3204 5.21309 15.3874L5.34235 15.3911H9.0061C10.1741 15.3911 11.1294 14.4779 11.1961 13.3269L11.1998 13.1981V12.4909C11.1998 12.1802 11.4517 11.9284 11.7623 11.9284C12.0471 11.9284 12.2825 12.14 12.3197 12.4145L12.3248 12.4909V13.1981C12.3248 14.9765 10.9247 16.4284 9.16686 16.5123L9.0061 16.5161H5.34235C3.55851 16.5161 2.10223 15.1105 2.02047 13.3464L2.01685 13.1899V4.84236C2.01685 3.05807 3.42216 1.60151 5.18583 1.51973L5.34235 1.51611H8.9986ZM17.4073 9.13401C17.4461 8.9532 17.3951 8.75696 17.2542 8.61672L15.0582 6.43047L14.995 6.37615C14.7745 6.21325 14.462 6.2321 14.2627 6.43224L14.2084 6.49545C14.0455 6.71602 14.0644 7.02848 14.2645 7.22773L15.4964 8.45361H7.82642L7.75009 8.45875C7.47553 8.496 7.26392 8.73134 7.26392 9.01611C7.26392 9.32677 7.51576 9.57861 7.82642 9.57861H15.4938L14.2644 10.8038L14.2099 10.8668C14.046 11.0866 14.0635 11.3992 14.2628 11.5993C14.482 11.8194 14.8382 11.8201 15.0583 11.6009L17.2389 9.42923C17.3226 9.35192 17.3827 9.24953 17.4073 9.13401Z" fill="#D25337"/>
</svg>
